HIERARCHY
ROOT Hips
{
	OFFSET -0.001795 -0.223333 0.028219
	CHANNELS 6 Xposition Yposition Zposition Zrotation Yrotation Xrotation 
	JOINT LeftUpLeg
	{
		OFFSET 0.069520 -0.091406 -0.006815
		CHANNELS 3 Zrotation Yrotation Xrotation
		JOINT LeftLeg
		{
			OFFSET 0.034277 -0.375199 -0.004496
			CHANNELS 3 Zrotation Yrotation Xrotation
			JOINT LeftFoot
			{
				OFFSET -0.013596 -0.397961 -0.043693
				CHANNELS 3 Zrotation Yrotation Xrotation
				JOINT LeftToe
				{
					OFFSET 0.026358 -0.055791 0.119288
					CHANNELS 3 Zrotation Yrotation Xrotation
					End Site
					{
						OFFSET 0.000000 0.000000 0.000000
					}
				}
			}
		}
	}
	JOINT RightUpLeg
	{
		OFFSET -0.067670 -0.090522 -0.004320
		CHANNELS 3 Zrotation Yrotation Xrotation
		JOINT RightLeg
		{
			OFFSET -0.038290 -0.382569 -0.008850
			CHANNELS 3 Zrotation Yrotation Xrotation
			JOINT RightFoot
			{
				OFFSET 0.015774 -0.398415 -0.042312
				CHANNELS 3 Zrotation Yrotation Xrotation
				JOINT RightToe
				{
					OFFSET -0.025372 -0.048144 0.123348
					CHANNELS 3 Zrotation Yrotation Xrotation
					End Site
					{
						OFFSET 0.000000 0.000000 0.000000
					}
				}
			}
		}
	}
	JOINT Spine
	{
		OFFSET -0.002533 0.108963 -0.026696
		CHANNELS 3 Zrotation Yrotation Xrotation
		JOINT Spine1
		{
			OFFSET 0.005487 0.135180 0.001092
			CHANNELS 3 Zrotation Yrotation Xrotation
			JOINT Spine2
			{
				OFFSET 0.001457 0.052922 0.025425
				CHANNELS 3 Zrotation Yrotation Xrotation
				JOINT Neck
				{
					OFFSET -0.002778 0.213870 -0.042857
					CHANNELS 3 Zrotation Yrotation Xrotation
					JOINT Head
					{
						OFFSET 0.005152 0.064970 0.051349
						CHANNELS 3 Zrotation Yrotation Xrotation
						End Site
						{
							OFFSET 0.000000 0.000000 0.000000
						}
					}
				}
				JOINT LeftShoulder
				{
					OFFSET 0.078845 0.121749 -0.034090
					CHANNELS 3 Zrotation Yrotation Xrotation
					JOINT LeftArm
					{
						OFFSET 0.090977 0.030469 -0.008868
						CHANNELS 3 Zrotation Yrotation Xrotation
						JOINT LeftForeArm
						{
							OFFSET 0.259612 -0.012772 -0.027456
							CHANNELS 3 Zrotation Yrotation Xrotation
							JOINT LeftHand
							{
								OFFSET 0.249234 0.008986 -0.001171
								CHANNELS 3 Zrotation Yrotation Xrotation
								End Site
								{
									OFFSET 0.000000 0.000000 0.000000
								}
							}
						}
					}
				}
				JOINT RightShoulder
				{
					OFFSET -0.081759 0.118833 -0.038615
					CHANNELS 3 Zrotation Yrotation Xrotation
					JOINT RightArm
					{
						OFFSET -0.096012 0.032551 -0.009143
						CHANNELS 3 Zrotation Yrotation Xrotation
						JOINT RightForeArm
						{
							OFFSET -0.253742 -0.013329 -0.021401
							CHANNELS 3 Zrotation Yrotation Xrotation
							JOINT RightHand
							{
								OFFSET -0.255298 0.007772 -0.005559
								CHANNELS 3 Zrotation Yrotation Xrotation
								End Site
								{
									OFFSET 0.000000 0.000000 0.000000
								}
							}
						}
					}
				}
			}
		}
	}
}
MOTION
Frames: 8
Frame Time: 0.050000
-0.135460 0.958865 -0.080726 -0.795458 3.244552 16.824359 4.900809 -1.528108 -23.891460 2.297841 -0.491571 4.717299 -2.081191 1.162017 11.180319 0.000000 0.000000 0.000000 -0.680020 1.948697 -21.273166 -5.866850 0.614181 0.139194 -0.997362 -7.064601 14.465382 0.000000 0.000000 0.000000 2.503299 -0.978841 11.674466 0.139197 0.027479 -2.835833 -9.495525 7.736930 1.197765 16.252447 -3.614738 -30.457803 0.000000 0.000000 0.000000 9.931114 -41.940562 12.040087 19.981216 -47.954282 -11.949737 24.085984 -2.628891 -0.402702 0.000000 0.000000 0.000000 -7.929328 34.012961 11.527113 -11.840503 52.851413 -6.641466 -26.487494 -5.770499 2.015714 0.000000 0.000000 0.000000 
-0.136504 0.959695 -0.080092 -0.706752 2.702119 17.177036 4.876493 -1.531058 -24.310650 2.294118 -0.504031 4.949678 -1.474345 2.301758 11.577117 0.000000 0.000000 0.000000 -0.267350 2.044767 -21.579078 -6.360552 0.645017 -0.009482 -0.544475 -6.354872 14.559564 0.000000 0.000000 0.000000 2.247359 -0.936497 11.764703 0.459388 -0.118512 -2.584851 -9.719692 7.167844 0.881084 16.207582 -3.665293 -30.369713 0.000000 0.000000 0.000000 9.862936 -42.037236 12.133458 21.136231 -46.124637 -11.622292 22.011918 -0.295421 0.028015 0.000000 0.000000 0.000000 -7.702903 34.346180 11.715993 -13.295892 52.218330 -7.279929 -26.316306 -5.317211 1.893084 0.000000 0.000000 0.000000 
-0.137070 0.960603 -0.079375 -0.670091 2.135609 17.395271 4.755337 -1.518669 -24.259661 2.465133 -0.520001 4.811938 -1.190611 2.800557 11.803486 0.000000 0.000000 0.000000 -0.015867 2.107687 -21.716387 -6.766110 0.635013 -0.463442 0.039974 -5.576666 15.242719 0.000000 0.000000 0.000000 2.108769 -0.917300 11.941341 0.425818 -0.105755 -2.576990 -9.532335 6.835655 0.872882 16.062405 -3.659876 -30.367669 0.000000 0.000000 0.000000 10.172828 -42.252735 12.147588 22.336702 -44.317054 -11.319158 19.781498 1.524901 0.283942 0.000000 0.000000 0.000000 -8.054042 34.345111 11.566490 -14.652903 51.554600 -7.801989 -24.922984 -5.078535 1.709626 0.000000 0.000000 0.000000 
-0.137244 0.961126 -0.078571 -0.537182 1.905036 17.574921 4.757987 -1.516669 -24.429316 2.619016 -0.554073 5.022035 -0.974021 3.304674 12.256098 0.000000 0.000000 0.000000 -0.003885 2.110192 -21.650680 -7.096929 0.625053 -0.845679 0.295230 -5.241152 15.553619 0.000000 0.000000 0.000000 2.002557 -0.909951 12.141956 0.501685 -0.138820 -2.560470 -9.619409 6.328256 0.734916 15.833154 -3.563262 -30.539971 0.000000 0.000000 0.000000 10.174982 -42.470719 12.242631 23.328269 -43.219962 -11.176947 17.995383 2.533805 0.385562 0.000000 0.000000 0.000000 -7.921428 34.600477 11.689013 -15.733753 50.561642 -8.144939 -23.311452 -4.733173 1.502624 0.000000 0.000000 0.000000 
-0.137170 0.961136 -0.077897 -0.458336 1.883555 17.597951 4.625930 -1.528931 -24.284444 2.671921 -0.554153 4.895625 -0.793903 3.656514 12.397645 0.000000 0.000000 0.000000 -0.108605 2.085261 -21.521771 -7.159254 0.604057 -1.101454 0.372222 -5.113431 15.591712 0.000000 0.000000 0.000000 2.049580 -0.907754 11.990986 0.456140 -0.125104 -2.410283 -9.636780 6.067340 0.970398 15.861002 -3.581889 -30.694785 0.000000 0.000000 0.000000 10.288613 -42.605406 12.248205 23.897832 -42.816534 -11.180366 17.070335 3.359393 0.455810 0.000000 0.000000 0.000000 -7.984199 34.779410 11.700762 -16.532212 49.682607 -8.325378 -21.397706 -4.905776 1.372060 0.000000 0.000000 0.000000 
-0.137024 0.961154 -0.077529 -0.265509 2.198498 17.628267 4.359418 -1.581916 -24.179595 2.749248 -0.564285 4.875331 -0.760150 3.767488 12.412075 0.000000 0.000000 0.000000 -0.331261 2.043820 -21.500134 -7.366343 0.624160 -1.114716 0.281819 -5.223935 15.628173 0.000000 0.000000 0.000000 2.278017 -0.957447 12.065169 0.482030 -0.128653 -2.597599 -9.988115 5.978863 1.295168 15.830523 -3.603880 -30.529145 0.000000 0.000000 0.000000 10.235546 -43.388672 12.456962 24.156770 -42.379832 -11.120582 16.592519 3.679735 0.474686 0.000000 0.000000 0.000000 -7.569734 35.027674 11.924548 -16.696401 48.835331 -8.224233 -20.001016 -4.817466 1.244753 0.000000 0.000000 0.000000 
-0.136861 0.961041 -0.077447 -0.161817 2.463857 17.779563 4.176882 -1.632366 -24.297571 2.826763 -0.574894 4.866296 -0.842935 3.810987 12.811683 0.000000 0.000000 0.000000 -0.533374 2.021632 -21.657085 -7.299674 0.625878 -1.060993 0.226292 -5.257175 15.576698 0.000000 0.000000 0.000000 2.487357 -0.990544 11.943195 0.505457 -0.150885 -2.265962 -10.371176 6.054379 1.251958 15.956669 -3.660100 -30.372893 0.000000 0.000000 0.000000 10.404858 -44.253550 12.632973 24.160041 -42.361321 -11.146024 16.404704 3.745566 0.475620 0.000000 0.000000 0.000000 -7.269087 35.210695 12.124799 -16.526183 48.442919 -8.057407 -18.725150 -5.214943 1.202389 0.000000 0.000000 0.000000 
-0.136737 0.961043 -0.077497 -0.006124 2.856746 17.865654 3.924572 -1.686195 -24.209993 2.890524 -0.564730 4.561780 -0.898616 3.778644 12.814781 0.000000 0.000000 0.000000 -0.796337 1.983506 -21.778674 -7.362849 0.656226 -0.856478 0.269082 -5.124692 15.659959 0.000000 0.000000 0.000000 2.636531 -1.026575 11.989707 0.680151 -0.224600 -2.274042 -10.773140 6.140482 1.362864 16.136176 -3.695235 -30.412731 0.000000 0.000000 0.000000 10.108408 -45.072914 12.925671 23.764728 -42.659617 -11.160990 16.324695 4.212857 0.523531 0.000000 0.000000 0.000000 -6.690232 35.467000 12.451737 -16.219025 47.897323 -7.820656 -17.108127 -5.188991 1.070683 0.000000 0.000000 0.000000 
